<?xml version="1.0" encoding="utf-8"?>
<!-- Generator: Adobe Illustrator 21.1.0, SVG Export Plug-In . SVG Version: 6.00 Build 0)  -->
<svg version="1.1" id="design" xmlns="http://www.w3.org/2000/svg" xmlns:xlink="http://www.w3.org/1999/xlink" x="0px" y="0px"
	 width="56px" height="56px" viewBox="0 0 56 56" style="enable-background:new 0 0 56 56;" xml:space="preserve">
<style type="text/css">
	.st0{fill:#333333;}
	.st1{fill:#B3DEFF;}
	.st2{fill:url(#SVGID_1_);}
</style>
<path class="st0" d="M24.1,25.9v5c0.9-0.3,1.9-0.1,2.7,0.5c0.1,0.1,0.3,0.1,0.4,0c2-1,3-0.8,4.5,0.9c0.6-0.3,1.3-0.4,2-0.2
	c1.3,0.2,2.3,1.3,2.5,2.6c0.2,2.3,0.2,4.6,0,6.8c-0.3,2.7-2.1,5.1-4.6,6.1c-0.8,0.3-1.2,1-1.1,1.8c0.1,1.7,0,3.3,0,5
	c0.1,0.6-0.2,1.2-0.7,1.6h-7.5c-0.5-0.3-0.8-0.9-0.8-1.5c0-2,0-3.9,0-5.9c0-0.3-0.1-0.5-0.4-0.6c0,0,0,0,0,0
	c-1.3-0.3-2.5-0.9-3.6-1.6c-2.3-1.6-3.6-4.3-3.5-7.1v-5.4c0-2.2,1.4-3.2,3.5-2.6l0.5,0.1v-5.6c0-0.6,0-1.2,0.2-1.8
	c0.5-1.5,2-2.3,3.5-2.1c1.5,0.1,2.7,1.5,2.6,3C24.1,25.4,24.1,25.6,24.1,25.9z M16.1,33.4c0,0.1,0,0.2,0,0.2c0,2.1,0,4.3,0,6.4
	c0.1,2.5,1.8,4.7,4.2,5.5c0.8,0.3,1.5,0.5,2.3,0.8s1,0.6,1,1.4c0,1.8,0,3.6,0,5.3c-0.1,0.2-0.1,0.5,0,0.7h4.6v-0.6
	c0-1.8,0-3.7,0-5.5c-0.1-0.6,0.3-1.3,0.9-1.4c0.7-0.2,1.3-0.5,2-0.9c1.9-1,3.1-3,3-5.2c0-1.5,0-3,0-4.4c0-0.2,0-0.4,0-0.7
	c0-0.5-0.4-0.9-0.9-0.9c-0.5,0-0.9,0.3-0.9,0.8c0,0.1,0,0.2,0,0.3c-0.1,0.6-0.7,1-1.3,0.9c-0.5-0.1-0.8-0.5-0.9-1c0-0.2,0-0.4,0-0.6
	c0-0.2,0-0.4,0-0.6c0-0.6-0.4-1-1-1c0,0,0,0-0.1,0c-0.5,0-0.9,0.3-1,0.9c-0.1,0.8-0.7,1.3-1.5,1c-0.5-0.2-0.8-0.6-0.8-1.1
	c0-0.5-0.4-0.9-0.9-0.9c0,0-0.1,0-0.1,0c-0.5,0.1-0.9,0.5-0.9,1c0,0.3,0,0.6,0,0.9c-0.1,0.6-0.6,1-1.2,1c-0.5-0.1-0.9-0.4-1-0.9
	c0-0.2,0-0.3,0-0.5c0-3.1,0-6.1,0-9.2c0-0.7-0.4-1.1-0.9-1.1S20,24.5,20,25.2v13.3c0,0.2,0,0.4,0,0.6c-0.1,0.5-0.5,0.9-1,0.9
	c-0.6,0-1.1-0.4-1.1-1c0-0.1,0-0.1,0-0.2c0-1.3,0-2.6,0-3.9c0-0.8-0.6-1.5-1.4-1.6C16.3,33.4,16.2,33.4,16.1,33.4z"/>
<path class="st1" d="M35.9,0.2c0.9,0.2,1.7,0.5,2.5,0.9c1.9,1,3.2,2.9,3.5,5c0.1,0.7,0.1,1.4,0,2.2c-0.7,3.8-4.3,6.4-8.1,5.7
	c-2.6-0.5-4.7-2.3-5.5-4.9l-0.2-0.8c0-0.7,0-1.5,0-2.2c0.2-1.3,0.8-2.5,1.7-3.5c1.1-1.2,2.5-2,4.1-2.3c0.1,0,0.2-0.1,0.2-0.1H35.9z"
	/>
<path class="st1" d="M24.1,25.9c0-0.3,0-0.6,0-0.9c0.1-1.5-1.1-2.9-2.6-3c-1.5-0.3-3,0.6-3.5,2c-0.2,0.6-0.2,1.2-0.2,1.8
	c-2-1-3.4-2.9-3.7-5.1c-0.1-0.7-0.1-1.4,0-2.1c0.6-3.8,4.2-6.4,8-5.8c2.3,0.4,4.2,1.8,5.2,3.9c0.2,0.6,0.4,1.2,0.6,1.9
	c0,0.7,0,1.5,0,2.2c-0.2,1.3-0.8,2.5-1.7,3.5C25.7,25,24.9,25.6,24.1,25.9z"/>
<path class="st0" d="M28.1,6c0,0.7,0,1.5,0,2.2h-22c-0.8,0-1.2-0.3-1.3-0.9C4.7,6.7,5.1,6.2,5.7,6.1c0,0,0.1,0,0.1,0L28.1,6L28.1,6z
	"/>
<path class="st0" d="M27.9,20.8c0-0.7,0-1.5,0-2.2h22c0.8,0,1.2,0.3,1.3,0.9c0.1,0.6-0.3,1.1-0.9,1.3c0,0,0,0-0.1,0
	c-0.1,0-0.2,0-0.3,0L27.9,20.8z"/>
<path class="st0" d="M41.9,8.2c0.1-0.7,0.1-1.4,0-2.2c2.1,0,6.1,0,8.2,0c0.6,0,1,0.4,1,0.9c0,0,0,0,0,0.1c0,0.6-0.4,1-0.9,1.1
	c-0.1,0-0.1,0-0.2,0L41.9,8.2z"/>
<path class="st0" d="M14.1,18.6c-0.1,0.7-0.1,1.4,0,2.1H6c-0.6,0-1.1-0.5-1.1-1.1s0.5-1.1,1.1-1.1C8,18.6,12.1,18.6,14.1,18.6z"/>
<linearGradient id="SVGID_1_" gradientUnits="userSpaceOnUse" x1="25.0311" y1="0.74" x2="25.0311" y2="17.6857" gradientTransform="matrix(1 0 0 -1 0 54.52)">
	<stop  offset="0" style="stop-color:#B2DEFF"/>
	<stop  offset="1" style="stop-color:#CEEBF6;stop-opacity:0"/>
</linearGradient>
<path class="st2" d="M16.1,33.4c0,0.1,0,0.2,0,0.2c0,2.1,0,4.3,0,6.4c0.1,2.5,1.8,4.7,4.2,5.5c0.8,0.3,1.5,0.5,2.3,0.8s1,0.6,1,1.4
	c0,1.8,0,3.6,0,5.3c-0.1,0.2-0.1,0.5,0,0.7h4.6v-0.6c0-1.8,0-3.7,0-5.5c-0.1-0.6,0.3-1.3,0.9-1.4c0.7-0.2,1.3-0.5,2-0.9
	c1.9-1,3.1-3,3-5.2c0-1.5,0-3,0-4.4c0-0.2,0-0.4,0-0.7c0-0.5-0.4-0.9-0.9-0.9c-0.5,0-0.9,0.3-0.9,0.8c0,0.1,0,0.2,0,0.3
	c-0.1,0.6-0.7,1-1.3,0.9c-0.5-0.1-0.8-0.5-0.9-1c0-0.2,0-0.4,0-0.6c0-0.2,0-0.4,0-0.6c0-0.6-0.4-1-1-1c0,0,0,0-0.1,0
	c-0.5,0-0.9,0.3-1,0.9c-0.1,0.8-0.7,1.3-1.5,1c-0.5-0.2-0.8-0.6-0.8-1.1c0-0.5-0.4-0.9-0.9-0.9c0,0-0.1,0-0.1,0
	c-0.5,0.1-0.9,0.5-0.9,1c0,0.3,0,0.6,0,0.9c-0.1,0.6-0.6,1-1.2,1c-0.5-0.1-0.9-0.4-1-0.9c0-0.2,0-0.3,0-0.5c0-3.1,0-6.1,0-9.2
	c0-0.7-0.4-1.1-0.9-1.1S20,24.5,20,25.2v13.3c0,0.2,0,0.4,0,0.6c-0.1,0.5-0.5,0.9-1,0.9c-0.6,0-1.1-0.4-1.1-1c0-0.1,0-0.1,0-0.2
	c0-1.3,0-2.6,0-3.9c0-0.8-0.6-1.5-1.4-1.6C16.3,33.4,16.2,33.4,16.1,33.4z"/>
</svg>
