<?xml version="1.0" encoding="utf-8"?>
<!-- Generator: Adobe Illustrator 21.1.0, SVG Export Plug-In . SVG Version: 6.00 Build 0)  -->
<svg version="1.1" id="Layer_1" xmlns="http://www.w3.org/2000/svg" xmlns:xlink="http://www.w3.org/1999/xlink" x="0px" y="0px"
	 width="56px" height="56px" viewBox="0 0 56 56" style="enable-background:new 0 0 56 56;" xml:space="preserve">
<style type="text/css">
	.st0{fill:url(#SVGID_1_);}
	.st1{fill:#FDF6B4;}
	.st2{fill:none;stroke:#333333;stroke-width:2;stroke-linecap:round;stroke-linejoin:round;}
	.st3{fill:#333333;}
</style>
<linearGradient id="SVGID_1_" gradientUnits="userSpaceOnUse" x1="34.4568" y1="59.8159" x2="34.4568" y2="38.9967">
	<stop  offset="0" style="stop-color:#FDF6B4"/>
	<stop  offset="1" style="stop-color:#FDF6B4;stop-opacity:0"/>
</linearGradient>
<circle class="st0" cx="34.5" cy="35.6" r="18.8"/>
<circle class="st1" cx="15.6" cy="15.6" r="15.2"/>
<line class="st2" x1="15.6" y1="12.1" x2="15.6" y2="22.7"/>
<polyline class="st2" points="19.9,18.4 15.6,22.7 11.3,18.4 "/>
<circle class="st3" cx="15.6" cy="7.8" r="1"/>
<circle class="st3" cx="15.6" cy="4.8" r="1"/>
<g>
	<path class="st2" d="M16.6,42c-1.5-4.2-1.5-8.9,0.3-13.4c3.9-9.7,15-14.5,24.7-10.6c5.4,2.2,9.3,6.6,11,11.8"/>
	<path class="st2" d="M53.4,34.9c0.1,2.6-0.3,5.2-1.4,7.8c-3.9,9.7-15,14.5-24.7,10.6c-3.5-1.4-6.3-3.7-8.4-6.5"/>
</g>
<polygon class="st2" points="43.4,34.3 35.4,33.3 39.3,22.8 25.5,37 33.5,38 29.6,48.5 "/>
<polyline class="st2" points="48.3,29.2 53,31 54.8,26.4 "/>
<polyline class="st2" points="24,45.9 19,45.5 18.6,50.5 "/>
</svg>
