<?xml version="1.0" encoding="utf-8"?>
<!-- Generator: Adobe Illustrator 21.1.0, SVG Export Plug-In . SVG Version: 6.00 Build 0)  -->
<svg version="1.1" id="Layer_1" xmlns="http://www.w3.org/2000/svg" xmlns:xlink="http://www.w3.org/1999/xlink" x="0px" y="0px"
	 width="56px" height="56px" viewBox="0 0 56 56" style="enable-background:new 0 0 56 56;" xml:space="preserve">
<style type="text/css">
	.st0{fill:#BDF4D0;}
	.st1{fill:url(#SVGID_1_);}
	.st2{fill:none;stroke:#333333;stroke-width:2;stroke-linecap:round;stroke-linejoin:round;}
	.st3{fill:#333333;}
	.st4{fill:none;stroke:#333333;stroke-width:2;stroke-miterlimit:10;}
	.st5{fill:none;stroke:#333333;stroke-width:2;stroke-linecap:round;stroke-miterlimit:10;}
</style>
<path class="st0" d="M46.7,40.8h-4.1c-0.6,0-1.1-0.5-1.1-1.1v-4.1c0-0.6,0.5-1.1,1.1-1.1h4.1c0.6,0,1.1,0.5,1.1,1.1v4.1
	C47.9,40.3,47.4,40.8,46.7,40.8z"/>
<circle class="st0" cx="34.6" cy="30.1" r="1.8"/>
<linearGradient id="SVGID_1_" gradientUnits="userSpaceOnUse" x1="32.1795" y1="-19.904" x2="31.2305" y2="26.5275" gradientTransform="matrix(1 0 0 -1 0 54.52)">
	<stop  offset="0" style="stop-color:#BDF4D0"/>
	<stop  offset="1" style="stop-color:#BDF4D0;stop-opacity:0"/>
</linearGradient>
<path class="st1" d="M8,19.6h46.9v35.9H10.6c-1.4,0-2.6-1.2-2.6-2.6V19.6"/>
<path class="st0" d="M0.4,18.6V4.5c0-2.3,1.9-4.3,4.3-4.3h19.8c2.3,0,4.3,1.9,4.3,4.3v14.2c0,2.3-1.9,4.3-4.3,4.3H4.6
	C2.3,22.9,0.4,21,0.4,18.6z"/>
<path class="st2" d="M10.5,11.1l3.3,3.4l5.5-8"/>
<g>
	<path class="st3" d="M21.3,32.5l-3.5,13.8h-2.3L18.8,33h-2.9v2.2h-2.2V31h7.6V32.5z"/>
	<path class="st3" d="M30,45c0,0.9-0.5,1.4-1.4,1.4H24c-0.9,0-1.4-0.5-1.4-1.4v-3.5h2.3v3h2.8v-5.9h-5.1l0.2-7.5h7v2H25l-0.1,3.5
		h3.7c0.9,0,1.4,0.5,1.4,1.4V45z"/>
</g>
<path class="st4" d="M46.7,40.8h-4.1c-0.6,0-1.1-0.5-1.1-1.1v-4.1c0-0.6,0.5-1.1,1.1-1.1h4.1c0.6,0,1.1,0.5,1.1,1.1v4.1
	C47.9,40.3,47.4,40.8,46.7,40.8z"/>
<path class="st5" d="M41.5,29.4l2.4-2.2c0.4-0.4,1.1-0.4,1.5,0l2.4,2.2"/>
<path class="st5" d="M41.5,45.9l2.4,2.2c0.4,0.4,1.1,0.4,1.5,0l2.4-2.2"/>
<path class="st2" d="M54,55.2H9.1c-0.6,0-1.1-0.5-1.1-1.1V20.5c0-0.6,0.5-1.1,1.1-1.1H54c0.6,0,1.1,0.5,1.1,1.1v33.5
	C55.1,54.7,54.6,55.2,54,55.2z"/>
<circle class="st2" cx="34.6" cy="30.1" r="1.8"/>
</svg>
